HIERARCHY
ROOT Haolin_28_06:Solving:Hips
{
	OFFSET 0.000000 0.000000 0.000000
	CHANNELS 6 Xposition Yposition Zposition Xrotation Yrotation Zrotation
	JOINT Haolin_28_06:Solving:Spine
	{
		OFFSET 0.000000 -12.181966 2.015561
		CHANNELS 6 Xposition Yposition Zposition Xrotation Yrotation Zrotation
		JOINT Haolin_28_06:Solving:Spine1
		{
			OFFSET 0.000000 -8.890296 1.567602
			CHANNELS 6 Xposition Yposition Zposition Xrotation Yrotation Zrotation
			JOINT Haolin_28_06:Solving:Spine2
			{
				OFFSET 0.000000 -8.993092 0.786796
				CHANNELS 6 Xposition Yposition Zposition Xrotation Yrotation Zrotation
				JOINT Haolin_28_06:Solving:Spine3
				{
					OFFSET 0.000000 -9.027443 0.000000
					CHANNELS 6 Xposition Yposition Zposition Xrotation Yrotation Zrotation
					JOINT Haolin_28_06:Solving:Neck
					{
						OFFSET 0.000000 -11.606712 -1.160669
						CHANNELS 6 Xposition Yposition Zposition Xrotation Yrotation Zrotation
						JOINT Haolin_28_06:Solving:Neck1
						{
							OFFSET 0.000000 -7.471592 -0.653680
							CHANNELS 6 Xposition Yposition Zposition Xrotation Yrotation Zrotation
							JOINT Haolin_28_06:Solving:Head
							{
								OFFSET 0.000000 -7.386181 -1.302382
								CHANNELS 6 Xposition Yposition Zposition Xrotation Yrotation Zrotation
								JOINT Haolin_28_06:Solving:HeadEnd
								{
									OFFSET 0.000000 -9.728081 0.000002
									CHANNELS 6 Xposition Yposition Zposition Xrotation Yrotation Zrotation
									End Site
									{
										OFFSET 0.000000 -9.728081 0.000002
									}
								}
							}
						}
					}
					JOINT Haolin_28_06:Solving:RightShoulder
					{
						OFFSET 0.000000 -8.290508 -5.270916
						CHANNELS 6 Xposition Yposition Zposition Xrotation Yrotation Zrotation
						JOINT Haolin_28_06:Solving:RightArm
						{
							OFFSET -19.261074 -0.000008 0.000000
							CHANNELS 6 Xposition Yposition Zposition Xrotation Yrotation Zrotation
							JOINT Haolin_28_06:Solving:RightForeArm
							{
								OFFSET -30.691700 -0.000011 0.000000
								CHANNELS 6 Xposition Yposition Zposition Xrotation Yrotation Zrotation
								JOINT Haolin_28_06:Solving:RightHand
								{
									OFFSET -20.216934 -0.000008 0.000000
									CHANNELS 6 Xposition Yposition Zposition Xrotation Yrotation Zrotation
									JOINT Haolin_28_06:Solving:RightHandThumb1
									{
										OFFSET -4.948814 2.881329 -3.679893
										CHANNELS 6 Xposition Yposition Zposition Xrotation Yrotation Zrotation
										End Site
										{
											OFFSET -7.039886 -0.000004 -7.104978
										}
									}
									JOINT Haolin_28_06:Solving:RightHandMiddle1
									{
										OFFSET -13.196846 -0.000004 0.084595
										CHANNELS 6 Xposition Yposition Zposition Xrotation Yrotation Zrotation
										End Site
										{
											OFFSET -10.002037 -0.000004 0.000000
										}
									}
								}
							}
						}
					}
					JOINT Haolin_28_06:Solving:LeftShoulder
					{
						OFFSET 0.000000 -8.290508 -5.270916
						CHANNELS 6 Xposition Yposition Zposition Xrotation Yrotation Zrotation
						JOINT Haolin_28_06:Solving:LeftArm
						{
							OFFSET 19.261074 -0.000008 0.000000
							CHANNELS 6 Xposition Yposition Zposition Xrotation Yrotation Zrotation
							JOINT Haolin_28_06:Solving:LeftForeArm
							{
								OFFSET 30.691700 -0.000011 0.000000
								CHANNELS 6 Xposition Yposition Zposition Xrotation Yrotation Zrotation
								JOINT Haolin_28_06:Solving:LeftHand
								{
									OFFSET 20.216934 -0.000008 0.000000
									CHANNELS 6 Xposition Yposition Zposition Xrotation Yrotation Zrotation
									JOINT Haolin_28_06:Solving:LeftHandThumb1
									{
										OFFSET 4.948814 2.881329 -3.679893
										CHANNELS 6 Xposition Yposition Zposition Xrotation Yrotation Zrotation
										End Site
										{
											OFFSET 7.039886 -0.000004 -7.104978
										}
									}
									JOINT Haolin_28_06:Solving:LeftHandMiddle1
									{
										OFFSET 13.196846 -0.000004 0.084595
										CHANNELS 6 Xposition Yposition Zposition Xrotation Yrotation Zrotation
										End Site
										{
											OFFSET 10.002037 -0.000004 0.000000
										}
									}
								}
							}
						}
					}
				}
			}
		}
	}
	JOINT Haolin_28_06:Solving:RightUpLeg
	{
		OFFSET -10.083070 0.000000 0.000000
		CHANNELS 6 Xposition Yposition Zposition Xrotation Yrotation Zrotation
		JOINT Haolin_28_06:Solving:RightLeg
		{
			OFFSET 0.000000 47.042522 -0.000008
			CHANNELS 6 Xposition Yposition Zposition Xrotation Yrotation Zrotation
			JOINT Haolin_28_06:Solving:RightFoot
			{
				OFFSET 0.000000 38.766415 -0.000006
				CHANNELS 6 Xposition Yposition Zposition Xrotation Yrotation Zrotation
				JOINT Haolin_28_06:Solving:RightForeFoot
				{
					OFFSET 0.000000 3.531212 -0.000000
					CHANNELS 6 Xposition Yposition Zposition Xrotation Yrotation Zrotation
					JOINT Haolin_28_06:Solving:RightToeBase
					{
						OFFSET 0.000000 0.000000 -13.829352
						CHANNELS 6 Xposition Yposition Zposition Xrotation Yrotation Zrotation
						JOINT Haolin_28_06:Solving:RightToeBaseEnd
						{
							OFFSET 0.000000 0.000000 -4.034167
							CHANNELS 6 Xposition Yposition Zposition Xrotation Yrotation Zrotation
							End Site
							{
								OFFSET 0.000000 -4.034164 0.000004
							}
						}
					}
				}
			}
		}
	}
	JOINT Haolin_28_06:Solving:LeftUpLeg
	{
		OFFSET 10.083070 0.000000 0.000000
		CHANNELS 6 Xposition Yposition Zposition Xrotation Yrotation Zrotation
		JOINT Haolin_28_06:Solving:LeftLeg
		{
			OFFSET 0.000000 47.042522 -0.000008
			CHANNELS 6 Xposition Yposition Zposition Xrotation Yrotation Zrotation
			JOINT Haolin_28_06:Solving:LeftFoot
			{
				OFFSET 0.000000 38.766415 -0.000006
				CHANNELS 6 Xposition Yposition Zposition Xrotation Yrotation Zrotation
				JOINT Haolin_28_06:Solving:LeftForeFoot
				{
					OFFSET 0.000000 3.531212 -0.000000
					CHANNELS 6 Xposition Yposition Zposition Xrotation Yrotation Zrotation
					JOINT Haolin_28_06:Solving:LeftToeBase
					{
						OFFSET 0.000000 0.000000 -13.829352
						CHANNELS 6 Xposition Yposition Zposition Xrotation Yrotation Zrotation
						JOINT Haolin_28_06:Solving:LeftToeBaseEnd
						{
							OFFSET 0.000000 0.000000 -4.855067
							CHANNELS 6 Xposition Yposition Zposition Xrotation Yrotation Zrotation
							End Site
							{
								OFFSET 0.000000 -4.855064 0.000004
							}
						}
					}
				}
			}
		}
	}
}
MOTION
Frames: 5
Frame Time: 0.041667
-21.782318 -87.938515 -89.526054 115.478282 5.228120 3.857680 0.000004 -12.181954 2.015530 24.010975 0.116378 0.488464 -0.000010 -8.890284 1.567589 11.998219 -0.327982 0.031187 0.000005 -8.993097 0.786780 13.681725 -1.625151 5.935995 -0.000003 -9.027447 0.000007 -3.312639 -1.099538 5.351107 -0.000004 -11.606700 -1.160671 -11.534303 2.433468 2.714702 -0.000001 -7.471584 -0.653701 -3.748352 1.376326 -3.556740 0.000001 -7.386181 -1.302365 -1.954771 0.312320 -1.346507 0.000002 -9.728104 0.000014 -0.000001 -0.000002 0.000000 -0.000004 -8.290497 -5.270917 -0.000003 12.120283 23.935768 -19.261063 -0.000019 -0.000007 -87.205861 -19.244212 -101.032431 -30.691700 -0.000007 0.000005 -47.581628 -26.344086 -25.904300 -20.216921 -0.000018 -0.000002 4.742404 -13.021170 20.213836 -4.948803 2.881324 -3.679878 -0.000004 -0.000010 0.000004 -13.196853 0.000001 0.084606 0.000000 -0.000011 0.000001 -0.000004 -8.290493 -5.270916 -0.000003 -4.022677 -20.334366 19.261072 -0.000007 0.000000 -89.765864 29.446103 102.380745 30.691696 -0.000004 0.000005 3.902515 49.216031 -2.956839 20.216921 -0.000008 -0.000000 -5.955100 -10.384310 -30.058232 4.948805 2.881327 -3.679885 0.000001 0.000000 -0.000002 13.196869 -0.000013 0.084585 -0.000003 -0.000001 -0.000000 -10.083068 0.000016 -0.000021 -49.574138 11.073168 -2.888494 -0.000001 47.042526 0.000010 44.360713 -0.000004 -0.000003 0.000009 38.766430 -0.000013 -6.196060 14.422149 -3.081452 0.000015 3.531219 0.000003 0.000001 0.000000 0.000001 0.000014 0.000013 -13.829366 -6.112670 0.000003 -0.000001 -0.000002 0.000000 -4.034177 0.000001 0.000003 -0.000000 10.083071 0.000004 -0.000023 -53.623057 -10.292843 -3.099399 0.000005 47.042507 -0.000020 21.774737 -0.000001 0.000001 -0.000006 38.766407 -0.000002 11.030667 -4.388739 5.219105 -0.000003 3.531212 -0.000004 0.000002 0.000001 0.000000 0.000009 0.000002 -13.829359 4.822812 0.000000 0.000001 0.000000 -0.000007 -4.855063 0.000002 0.000002 -0.000001 
-21.803875 -88.051468 -89.472015 115.202615 5.259693 3.859281 -0.000002 -12.181969 2.015541 23.948814 0.133747 0.544954 0.000004 -8.890319 1.567574 11.958286 -0.337103 0.071816 -0.000001 -8.993088 0.786796 13.689849 -1.670178 6.013696 0.000002 -9.027437 -0.000003 -3.287866 -1.111923 5.364239 -0.000002 -11.606724 -1.160658 -11.605792 2.407707 2.757596 -0.000001 -7.471573 -0.653715 -3.665190 1.335202 -3.601430 0.000001 -7.386207 -1.302377 -1.899826 0.311353 -1.366122 -0.000008 -9.728096 0.000004 -0.000001 -0.000001 0.000000 0.000001 -8.290504 -5.270909 -0.000005 12.118596 23.882151 -19.261076 -0.000013 0.000005 -86.991168 -19.305108 -101.186240 -30.691698 -0.000020 -0.000009 -47.348855 -26.650085 -25.961937 -20.216930 -0.000011 0.000010 4.754773 -12.906080 20.425462 -4.948819 2.881323 -3.679875 -0.000001 -0.000003 0.000004 -13.196860 -0.000016 0.084593 -0.000000 -0.000006 0.000001 -0.000005 -8.290501 -5.270910 -0.000005 -3.911756 -20.211563 19.261076 -0.000007 0.000023 -89.226265 29.380943 102.226205 30.691679 -0.000008 0.000003 3.464900 49.725922 -2.644921 20.216904 -0.000003 -0.000009 -6.069872 -10.638691 -29.941654 4.948796 2.881329 -3.679878 -0.000001 -0.000003 -0.000004 13.196839 0.000001 0.084604 -0.000000 -0.000005 0.000001 -10.083076 -0.000015 -0.000014 -49.115088 11.456379 -3.037018 0.000001 47.042522 0.000002 44.834007 -0.000003 -0.000002 0.000010 38.766418 0.000001 -6.865389 14.527087 -3.076868 0.000000 3.531204 -0.000027 -0.000001 -0.000001 0.000001 0.000012 0.000022 -13.829357 -5.995148 0.000000 0.000000 0.000004 -0.000015 -4.034183 0.000002 -0.000002 0.000000 10.083069 -0.000007 -0.000019 -53.457483 -10.289019 -3.162203 -0.000011 47.042511 -0.000016 21.839006 -0.000003 0.000000 0.000001 38.766418 0.000008 11.019093 -4.285133 5.311786 -0.000003 3.531212 0.000002 0.000001 -0.000002 0.000001 0.000001 0.000007 -13.829340 4.862140 -0.000000 0.000002 -0.000001 0.000016 -4.855070 0.000001 0.000001 0.000003 
-21.835445 -88.167885 -89.423065 114.951824 5.304123 3.857620 -0.000002 -12.181958 2.015556 23.890038 0.153574 0.604037 -0.000007 -8.890309 1.567592 11.926401 -0.345590 0.105224 -0.000001 -8.993098 0.786769 13.622219 -1.723892 6.118488 -0.000006 -9.027453 -0.000005 -3.350961 -1.119832 5.404484 -0.000004 -11.606707 -1.160676 -11.434859 2.378044 2.770614 0.000002 -7.471589 -0.653674 -3.672886 1.323816 -3.664667 -0.000002 -7.386199 -1.302367 -1.913068 0.310500 -1.372399 -0.000004 -9.728096 -0.000001 0.000005 0.000000 -0.000000 -0.000001 -8.290501 -5.270927 -0.000007 12.023950 23.781899 -19.261086 -0.000017 0.000009 -86.628676 -19.364358 -101.348580 -30.691692 -0.000020 0.000003 -47.183309 -26.942205 -26.058989 -20.216927 -0.000015 0.000001 4.763136 -12.775807 20.646436 -4.948804 2.881334 -3.679861 -0.000003 -0.000007 0.000003 -13.196839 0.000006 0.084609 -0.000000 -0.000005 -0.000001 -0.000002 -8.290497 -5.270927 -0.000002 -3.847852 -20.067186 19.261072 -0.000011 0.000003 -88.633726 29.381076 102.132659 30.691677 -0.000005 -0.000002 2.818634 50.156757 -2.164845 20.216909 -0.000014 0.000000 -6.082712 -10.748581 -29.743131 4.948801 2.881327 -3.679891 0.000000 0.000002 0.000002 13.196855 -0.000005 0.084583 0.000001 0.000001 0.000001 -10.083069 0.000002 -0.000004 -48.671440 11.837368 -3.202201 0.000010 47.042530 0.000002 45.288017 -0.000001 -0.000001 0.000008 38.766411 -0.000011 -7.502784 14.604568 -3.001705 -0.000001 3.531204 0.000001 0.000001 -0.000003 0.000000 -0.000004 0.000016 -13.829352 -6.000135 -0.000002 -0.000001 0.000003 -0.000008 -4.034164 -0.000001 -0.000003 0.000000 10.083071 0.000011 -0.000006 -53.330708 -10.290361 -3.243479 -0.000003 47.042534 -0.000009 21.944932 -0.000001 -0.000002 -0.000001 38.766441 -0.000001 10.966909 -4.206241 5.517507 -0.000002 3.531204 -0.000008 0.000001 -0.000001 0.000002 0.000004 0.000002 -13.829358 5.075014 0.000000 0.000000 -0.000001 -0.000008 -4.855070 0.000000 0.000000 0.000000 
-21.865108 -88.276115 -89.373024 114.659547 5.373691 3.871583 -0.000001 -12.181966 2.015578 23.849629 0.158806 0.644872 0.000005 -8.890286 1.567584 11.899749 -0.350297 0.130667 -0.000002 -8.993114 0.786777 13.555286 -1.763894 6.239657 -0.000000 -9.027438 -0.000010 -3.397858 -1.115064 5.472631 0.000001 -11.606719 -1.160671 -11.365784 2.299493 2.808206 0.000001 -7.471577 -0.653668 -3.615853 1.295740 -3.757764 -0.000003 -7.386189 -1.302406 -1.881429 0.311303 -1.398030 -0.000001 -9.728096 0.000021 -0.000003 -0.000000 0.000000 -0.000003 -8.290520 -5.270911 -0.000012 11.909619 23.674262 -19.261065 -0.000007 0.000013 -86.284462 -19.393820 -101.531247 -30.691711 -0.000022 0.000005 -46.987480 -27.249617 -26.141246 -20.216944 -0.000019 0.000006 4.777914 -12.667160 20.865010 -4.948841 2.881325 -3.679890 -0.000004 -0.000012 0.000004 -13.196868 0.000000 0.084590 -0.000002 -0.000005 0.000001 -0.000007 -8.290512 -5.270909 -0.000003 -3.810939 -19.942773 19.261070 -0.000019 0.000008 -88.013230 29.359251 102.024250 30.691679 -0.000007 0.000009 2.450797 50.610090 -1.894541 20.216915 -0.000007 -0.000003 -6.145549 -10.926857 -29.597785 4.948802 2.881330 -3.679868 -0.000001 -0.000009 0.000003 13.196833 -0.000009 0.084595 -0.000004 -0.000007 0.000002 -10.083077 0.000001 0.000047 -48.149897 12.226083 -3.394459 -0.000003 47.042519 0.000010 45.690919 -0.000003 -0.000003 0.000012 38.766430 -0.000008 -8.144622 14.634170 -2.956648 0.000001 3.531212 0.000004 -0.000000 -0.000004 0.000002 0.000000 0.000004 -13.829342 -6.009683 -0.000001 -0.000001 -0.000017 -0.000007 -4.034159 -0.000000 0.000002 -0.000001 10.083071 0.000004 0.000011 -53.145815 -10.382102 -3.332716 -0.000003 47.042500 0.000005 21.992772 -0.000002 -0.000002 0.000002 38.766438 0.000003 10.856129 -4.206697 5.654412 0.000003 3.531212 -0.000006 0.000001 0.000001 -0.000002 0.000007 -0.000003 -13.829350 5.393072 0.000002 0.000000 0.000001 -0.000008 -4.855064 0.000001 0.000001 -0.000003 
-21.900118 -88.379486 -89.324837 114.327996 5.470964 3.903950 0.000002 -12.181964 2.015564 23.817423 0.160773 0.681740 0.000001 -8.890296 1.567586 11.911076 -0.355731 0.145618 0.000006 -8.993108 0.786766 13.484679 -1.805473 6.375772 -0.000000 -9.027430 0.000007 -3.437655 -1.111319 5.549029 -0.000001 -11.606737 -1.160682 -11.342021 2.212373 2.824731 0.000004 -7.471611 -0.653675 -3.557275 1.264670 -3.808633 -0.000000 -7.386189 -1.302390 -1.847267 0.311939 -1.419068 0.000000 -9.728111 -0.000022 0.000003 0.000000 -0.000001 0.000002 -8.290535 -5.270927 -0.000010 11.818584 23.565587 -19.261070 -0.000007 -0.000003 -85.991358 -19.424956 -101.748112 -30.691732 -0.000017 0.000000 -46.798472 -27.574681 -26.239435 -20.216942 -0.000006 0.000009 4.801665 -12.545493 21.142569 -4.948810 2.881337 -3.679881 -0.000002 -0.000007 0.000005 -13.196830 -0.000001 0.084587 0.000000 -0.000001 0.000001 -0.000003 -8.290531 -5.270928 -0.000004 -3.812847 -19.827527 19.261078 -0.000016 0.000021 -87.384511 29.291669 101.922487 30.691710 -0.000011 0.000009 2.073403 51.059981 -1.612968 20.216923 -0.000007 -0.000011 -6.111690 -10.947023 -29.416337 4.948821 2.881327 -3.679897 -0.000000 0.000000 -0.000002 13.196856 0.000001 0.084579 -0.000000 -0.000007 0.000003 -10.083069 0.000015 0.000001 -47.546176 12.584189 -3.630695 0.000012 47.042538 0.000006 46.001925 -0.000002 -0.000001 0.000009 38.766426 0.000005 -8.747873 14.676034 -2.953970 0.000013 3.531212 0.000011 -0.000001 -0.000004 0.000002 0.000007 0.000011 -13.829365 -6.072146 -0.000007 0.000000 0.000015 -0.000008 -4.034194 -0.000001 0.000001 -0.000000 10.083070 0.000010 0.000004 -52.910265 -10.418770 -3.462568 0.000002 47.042522 0.000004 22.003890 0.000002 -0.000001 -0.000006 38.766430 0.000011 10.794176 -4.162977 5.678533 -0.000005 3.531212 0.000009 -0.000000 -0.000001 0.000003 -0.000001 0.000006 -13.829363 5.496082 0.000001 0.000003 0.000003 -0.000000 -4.855071 -0.000000 0.000002 -0.000001 
